<svg version="1" xmlns="http://www.w3.org/2000/svg" x="0" y="0" viewBox="0 0 35 42.2" xml:space="preserve"><style type="text/css">
	.st0{fill:#3FA47C;}
	.st1{fill:#FFFFFF;}
	.st2{fill:none;stroke:#3FA47C;stroke-width:4.3119;stroke-miterlimit:10;}
	.st3{fill:none;stroke:#3FA47C;stroke-width:5.3899;stroke-miterlimit:10;}
</style><g id="Layer_1"/><g id="Layer_2"><path class="st0" d="M28.3 0H6.7C3 0 0 3 0 6.7v18.5C0 28.9 3 32 6.7 32h2.9l7.9 10.3L25.4 32h2.9c3.7 0 6.7-3 6.7-6.7V6.7C35 3 32 0 28.3 0z"/><path class="st1" d="M29.4 22.8c0 2-1.6 3.7-3.7 3.7H9c-2 0-3.7-1.6-3.7-3.7V8.2c0-2 1.6-3.7 3.7-3.7h16.7c2 0 3.7 1.6 3.7 3.7V22.8z"/><polyline class="st2" points="10.9 12.9 17.4 19.3 24.1 12.6 "/><line class="st3" x1="17.5" y1="0" x2="17.5" y2="18.1"/></g></svg>