<svg class="close-svg" xmlns="http://www.w3.org/2000/svg" version="1.1" x="0" y="0" viewBox="0 0 19.9 19.9" xml:space="preserve"><style type="text/css">
.x-close-white {fill:#38a57b;}</style><path class="x-close-white" d="M12.5 10l6.9-6.9c0.7-0.7 0.7-1.8 0-2.5 -0.7-0.7-1.8-0.7-2.5 0L10 7.4 3.1 0.5c-0.7-0.7-1.8-0.7-2.5 0s-0.7 1.8 0 2.5L7.4 10l-6.9 6.9c-0.7 0.7-0.7 1.8 0 2.5 0.4 0.4 0.8 0.5 1.3 0.5s0.9-0.2 1.3-0.5l6.9-6.9 6.9 6.9c0.4 0.4 0.8 0.5 1.3 0.5s0.9-0.2 1.3-0.5c0.7-0.7 0.7-1.8 0-2.5L12.5 10z"/></svg>